<?xml version="1.0" encoding="utf-8"?>

<svg height="31px"
     version="1.1"
     viewBox="0 0 181 31"
     width="181px"
     x="0px"
     xmlns="http://www.w3.org/2000/svg"
     y="0px">
  <path d="M0,29.49v-3.58h2.96v3.58H0z" fill="#000" />
  <path d="M7.73,26.96c-1.62-2.02-2.43-4.67-2.43-7.95c0-3.27,0.86-5.92,2.59-7.95c1.72-2.02,3.94-3.04,6.66-3.04c0.91,0,1.77,0.14,2.57,0.41c0.8,0.27,1.44,0.6,1.92,0.99c0.48,0.38,0.89,0.77,1.24,1.16c0.35,0.39,0.59,0.72,0.73,1L21.22,12h0.08c-0.05-0.47-0.08-1-0.08-1.59V3.58c0-0.61-0.3-0.92-0.9-0.92h-1.71V0.2h2.89c0.88,0,1.51,0.2,1.9,0.6c0.39,0.4,0.59,1.05,0.59,1.94v23.37c0,0.61,0.3,0.91,0.9,0.91h1.71v2.46h-2.85c-0.86,0-1.49-0.19-1.87-0.58c-0.38-0.39-0.58-0.97-0.58-1.76l0.08-1.32H21.3c-0.05,0.11-0.13,0.26-0.22,0.45c-0.09,0.19-0.33,0.53-0.73,1.01c-0.39,0.48-0.83,0.9-1.32,1.27c-0.49,0.37-1.16,0.7-2.02,1S15.24,30,14.25,30C11.52,30,9.34,28.99,7.73,26.96z M10.05,12.9c-1.27,1.52-1.91,3.56-1.91,6.12c0,2.56,0.6,4.6,1.81,6.12c1.21,1.52,2.77,2.28,4.71,2.28c0.89,0,1.72-0.17,2.49-0.5c0.78-0.33,1.48-0.82,2.11-1.47c0.63-0.65,1.13-1.53,1.49-2.64c0.36-1.1,0.55-2.37,0.55-3.8c0-1.08-0.14-2.12-0.42-3.1c-0.28-0.99-0.68-1.88-1.2-2.68s-1.21-1.43-2.06-1.91c-0.85-0.47-1.79-0.71-2.84-0.71C12.9,10.62,11.32,11.38,10.05,12.9z" fill="#000" />
  <path d="M27.24,18.92c0-2.03,0.48-3.89,1.45-5.55c0.97-1.67,2.27-2.97,3.93-3.92c1.65-0.94,3.47-1.41,5.44-1.41c1.97,0,3.79,0.47,5.45,1.41c1.66,0.94,2.97,2.25,3.94,3.92c0.97,1.67,1.45,3.52,1.45,5.55c0,1.54-0.29,3.01-0.86,4.39c-0.57,1.38-1.34,2.56-2.3,3.53c-0.96,0.97-2.11,1.74-3.45,2.31C40.94,29.71,39.53,30,38.05,30c-1.98,0-3.8-0.48-5.45-1.43c-1.65-0.96-2.96-2.29-3.92-3.99C27.72,22.88,27.24,20.99,27.24,18.92z M30.08,18.92c0,2.42,0.77,4.44,2.33,6.06s3.43,2.44,5.64,2.44c2.21,0,4.1-0.82,5.65-2.45c1.56-1.63,2.33-3.65,2.33-6.05c0-2.33-0.78-4.3-2.33-5.9c-1.56-1.6-3.44-2.4-5.65-2.4c-2.21,0-4.09,0.8-5.64,2.39C30.86,14.6,30.08,16.57,30.08,18.92z" fill="#000" />
  <path d="M49.76,10.92V8.54h2.73v-5.8h2.73v5.8h5.17v2.38h-5.17v10.63c0,0.79,0.08,1.49,0.23,2.11c0.15,0.62,0.37,1.13,0.64,1.51c0.27,0.39,0.56,0.71,0.87,0.97c0.31,0.26,0.64,0.46,1.02,0.59c0.37,0.13,0.71,0.22,1,0.26c0.3,0.05,0.6,0.07,0.91,0.07l0.93-0.08v2.58c-0.33,0.05-0.74,0.08-1.23,0.08c-0.57,0-1.12-0.04-1.65-0.13c-0.53-0.09-1.14-0.29-1.84-0.61c-0.7-0.32-1.3-0.74-1.8-1.27c-0.5-0.53-0.94-1.29-1.29-2.29c-0.36-1-0.54-2.16-0.54-3.49V10.92H49.76z" fill="#000" />
  <path d="M61.86,10.92V8.54h2.57V7.79c0-1.1,0.12-2.09,0.36-2.97c0.24-0.88,0.56-1.59,0.98-2.14c0.41-0.54,0.85-1,1.32-1.37c0.47-0.37,0.99-0.65,1.56-0.83c0.57-0.18,1.07-0.31,1.51-0.38C70.6,0.03,71.04,0,71.49,0l1.25,0.08v2.58c-0.27-0.05-0.6-0.08-1.01-0.08c-0.31,0-0.6,0.02-0.89,0.07c-0.29,0.05-0.61,0.13-0.98,0.25c-0.36,0.12-0.7,0.31-0.99,0.56c-0.3,0.25-0.58,0.56-0.85,0.92c-0.27,0.36-0.47,0.84-0.62,1.42c-0.15,0.59-0.22,1.25-0.22,1.99v0.75h9.42c0.88,0,1.51,0.2,1.9,0.6c0.39,0.4,0.59,1.05,0.59,1.94v15.03c0,0.61,0.3,0.92,0.9,0.92h2v2.46h-3.17c-0.88,0-1.51-0.2-1.9-0.6c-0.39-0.4-0.59-1.05-0.59-1.94V11.84c0-0.61-0.3-0.92-0.9-0.92H67.2v18.57h-2.77V10.92H61.86z M76.29,3.78V0.2H79v3.58H76.29z" fill="#000" />
  <path d="M82.37,2.66V0.2h2.91c0.88,0,1.51,0.2,1.9,0.6c0.39,0.4,0.59,1.05,0.59,1.94v23.37c0,0.61,0.3,0.92,0.9,0.92h1.71v2.46h-2.9c-0.88,0-1.51-0.2-1.89-0.6c-0.38-0.4-0.58-1.05-0.58-1.94V3.58c0-0.61-0.31-0.92-0.92-0.92H82.37z" fill="#000" />
  <path d="M92.29,19.04c0-1.68,0.27-3.22,0.8-4.62c0.54-1.4,1.26-2.56,2.18-3.48c0.92-0.92,1.99-1.64,3.21-2.15c1.22-0.51,2.53-0.76,3.92-0.76c1.82,0,3.4,0.45,4.72,1.34c1.32,0.89,2.3,2.06,2.92,3.5c0.63,1.44,0.94,3.04,0.94,4.82c0,0.22-0.01,0.5-0.04,0.85c-0.03,0.35-0.04,0.54-0.04,0.57H95.14c0.04,2.56,0.82,4.59,2.35,6.07c1.53,1.49,3.4,2.23,5.62,2.23c0.67,0,1.32-0.08,1.96-0.23c0.65-0.16,1.21-0.36,1.69-0.6c0.48-0.24,0.89-0.47,1.25-0.69c0.35-0.22,0.66-0.43,0.92-0.64s0.4-0.32,0.43-0.33l1.26,2.16c-0.01,0.01-0.1,0.08-0.25,0.19c-0.15,0.12-0.3,0.22-0.44,0.33s-0.33,0.24-0.58,0.41c-0.25,0.17-0.5,0.32-0.75,0.46s-0.54,0.29-0.86,0.45c-0.32,0.16-0.66,0.3-1.02,0.43c-0.36,0.12-0.74,0.24-1.13,0.35c-0.39,0.11-0.81,0.19-1.25,0.24c-0.44,0.05-0.88,0.08-1.34,0.08c-3.07,0-5.62-1.03-7.66-3.08C93.31,24.86,92.29,22.24,92.29,19.04zM95.26,16.86h12.89c-0.08-2.08-0.66-3.67-1.75-4.78s-2.44-1.67-4.06-1.67c-1.78,0-3.33,0.57-4.63,1.7C96.39,13.24,95.58,14.83,95.26,16.86z" fill="#000" />
  <path d="M112.92,26.32l1.63-1.92c0.07,0.08,0.16,0.19,0.28,0.34c0.12,0.14,0.38,0.39,0.79,0.75s0.83,0.68,1.28,0.96c0.45,0.28,1.04,0.53,1.75,0.75c0.72,0.22,1.45,0.34,2.19,0.34c1.22,0,2.24-0.29,3.07-0.88c0.83-0.58,1.24-1.41,1.24-2.47c0-0.61-0.21-1.17-0.63-1.66c-0.42-0.5-0.97-0.91-1.65-1.25c-0.68-0.34-1.42-0.68-2.23-1.01c-0.81-0.33-1.63-0.69-2.45-1.07c-0.82-0.38-1.56-0.81-2.24-1.28c-0.68-0.47-1.23-1.07-1.66-1.79c-0.42-0.73-0.64-1.55-0.64-2.46c0-1.82,0.68-3.22,2.04-4.19s3.12-1.46,5.27-1.46c0.46,0,0.95,0.04,1.46,0.11c0.51,0.07,1.05,0.2,1.63,0.39s1.09,0.41,1.55,0.69c0.46,0.28,0.84,0.64,1.13,1.1c0.3,0.45,0.45,0.96,0.45,1.52v1.79h-2.57v-1.01c0-0.37-0.12-0.7-0.36-1s-0.54-0.53-0.91-0.69s-0.75-0.29-1.14-0.38c-0.39-0.09-0.76-0.13-1.12-0.13c-1.44,0-2.57,0.27-3.38,0.79c-0.81,0.53-1.21,1.3-1.21,2.3c0,0.64,0.21,1.21,0.64,1.7s0.97,0.91,1.65,1.25c0.67,0.34,1.42,0.67,2.23,0.99c0.81,0.32,1.63,0.67,2.45,1.05s1.57,0.8,2.25,1.27c0.68,0.47,1.23,1.07,1.65,1.81c0.42,0.74,0.64,1.58,0.64,2.52c0,1.74-0.68,3.15-2.05,4.25c-1.37,1.09-3.08,1.64-5.15,1.64c-0.98,0-1.93-0.13-2.84-0.38c-0.91-0.25-1.66-0.56-2.24-0.92c-0.58-0.36-1.1-0.72-1.54-1.09c-0.44-0.37-0.77-0.68-0.97-0.94L112.92,26.32z" fill="#000" />
  <path d="M155.73,10.03c0.02-4.03-3.1-5.18-3.1-5.18c-2.75-1.15-4.67-0.52-4.67-0.52V1H144v12.82c0,2.98,3.85,2.65,3.85,2.65c3.87,0,5.82-1.92,5.82-1.92C155.84,12.54,155.73,10.03,155.73,10.03z M148.97,12.82c-0.38-0.01-0.72-0.09-1.01-0.24l0-4.54c0.3-0.16,0.64-0.24,1-0.24c0.45,0,2.2,0.3,2.33,2.52C151.29,11.7,150.22,12.84,148.97,12.82z" fill="#d21929"/>
  <path d="M162.67,4.16c-3.63,0-6.58,2.75-6.58,6.14c0,3.38,2.93,6.12,6.55,6.14c0.11-1.54,1.39-2.75,2.96-2.75c0.75,0,1.43,0.28,1.95,0.73c1.06-1.09,1.7-2.53,1.7-4.12C169.25,6.91,166.3,4.16,162.67,4.16z M162.67,12.78c-1.28,0-2.31-1.11-2.31-2.48c0-1.37,1.04-2.48,2.31-2.48s2.32,1.11,2.32,2.48C164.99,11.67,163.95,12.78,162.67,12.78z" fill="#d21929" />
  <path d="M175.4,4.23c0,0,2.41-0.04,4.09,1.65c0,0,1.52,1.36,1.51,5.21c0,0-0.03,1.48-0.79,4.98c-0.02,0.1-0.13,0.27-0.35,0.27c0,0-3.1,0-3.3,0c-0.29,0-0.41-0.28-0.36-0.46c0,0,0.4-1.16,0.64-2.57c0,0,0.59-3.93-0.63-5.18c0,0-0.67-1.06-2.49-0.69c0,0,0,8.44,0,8.55c0,0.09-0.07,0.35-0.38,0.35c0,0-3.39,0-3.51,0c-0.19,0-0.37-0.16-0.37-0.35c0,0,0-11.26,0-11.38c0-0.19,0.11-0.39,0.39-0.39H175.4" fill="#d21929" />
  <path d="M151.15,18.9c-1.42-1.14-2.61-1.79-5.84-1.79c0,0-3.5,0-4.1,0c-0.12,0-0.21,0.07-0.21,0.19V31h4.29v-2.61c0,0,2.6,0.67,4.67-0.52c1.97-1.13,3.12-2.92,3.1-5.18C153.06,22.69,153.11,20.47,151.15,18.9z M146.29,25.36c-0.36,0-0.7-0.08-1-0.24l0-4.54c0.29-0.15,0.62-0.24,1.01-0.24c1.25-0.02,2.32,1.12,2.32,2.51C148.49,25.06,146.74,25.36,146.29,25.36z" fill="#d21929" />
  <path d="M159.38,17.12c-2.45,0-5.53,0-5.53,0c-0.29,0-0.39,0.2-0.39,0.39c0,0.12,0,11.38,0,11.38c0,0.19,0.17,0.35,0.37,0.35c0.12,0,3.51,0,3.51,0c0.31,0,0.38-0.26,0.38-0.35c0-0.11,0-8.55,0-8.55c1.7-0.53,1.33,1.9,1.21,2.38c-0.07,0.26,0.06,0.46,0.36,0.46c0.19,0,3.3,0,3.3,0c0.22,0,0.33-0.17,0.35-0.27C163.69,19.41,161.83,17.12,159.38,17.12" fill="#d21929" />
  <path d="M165.61,19.62c-1.34,0-2.11-0.88-2.11-0.88v10.13c0,0.2,0.17,0.37,0.37,0.37c0.12,0,3.51,0,3.51,0c0.31,0,0.38-0.27,0.38-0.37c0-0.12,0-10.17,0-10.17S166.94,19.62,165.61,19.62" fill="#d21929" />
  <path d="M176.43,23.18L176.43,23.18c0-0.08,0.03-0.17,0.07-0.22c2.69-3.53,3.08-5.01,3.14-5.39c0.03-0.16-0.07-0.45-0.37-0.45c-0.1,0-3.3,0-3.3,0c-0.23,0-0.33,0.26-0.33,0.26c-0.67,1.73-1.63,2.72-1.63,2.72c-0.04,0.04-0.09,0.05-0.12,0.05h0c-0.04,0-0.08-0.01-0.12-0.05c0,0-0.96-0.99-1.63-2.72c0,0-0.09-0.26-0.33-0.26c0,0-3.21,0-3.3,0c-0.3,0-0.4,0.29-0.37,0.45c0.06,0.38,0.45,1.86,3.14,5.39c0.05,0.06,0.07,0.14,0.08,0.22v0c0,0.08-0.03,0.16-0.08,0.22c-2.69,3.53-3.08,5.01-3.14,5.39c-0.03,0.16,0.07,0.45,0.37,0.45c0.1,0,3.3,0,3.3,0c0.23,0,0.33-0.26,0.33-0.26c0.67-1.73,1.63-2.72,1.63-2.72c0.04-0.04,0.08-0.05,0.12-0.05h0c0.04,0,0.08,0.01,0.12,0.05c0,0,0.96,0.99,1.63,2.72c0,0,0.09,0.26,0.33,0.26c0,0,3.21,0,3.3,0c0.3,0,0.4-0.29,0.37-0.45c-0.06-0.38-0.45-1.86-3.14-5.39C176.46,23.34,176.44,23.26,176.43,23.18" fill="#d21929" />
</svg>
